<svg width="160" height="138" viewBox="0 0 160 138" fill="none" xmlns="http://www.w3.org/2000/svg">
<path d="M122.971 130.857L115.766 111.047H93.9665L101.172 130.857H122.971ZM57.573 73.582H73.4493L65.5111 51.75L57.573 73.582ZM130.726 133.148C131.174 134.316 131.072 135.417 130.421 136.45C129.77 137.483 128.874 138 127.734 138H99.0347C97.5692 138 96.5718 137.259 96.0426 135.776L87.0663 111.047H43.9559L34.9797 135.776C34.4505 137.259 33.4531 138 31.9876 138H3.22694C2.0871 138 1.21186 137.483 0.601235 136.45C-0.0501029 135.417 -0.172229 134.316 0.234857 133.148L47.8639 2.22363C48.3932 0.741211 49.3905 0 50.856 0H80.1662C81.6317 0 82.6291 0.741211 83.1583 2.22363L109.904 75.8057C109.904 75.7607 109.924 75.8506 109.965 76.0752C110.046 76.2998 110.087 76.4346 110.087 76.4795C110.087 76.5693 110.107 76.7266 110.148 76.9512C110.148 77.1758 110.148 77.2432 110.148 77.1533V77.2207C110.148 77.3105 110.128 77.4678 110.087 77.6924C110.046 77.917 110.046 77.9844 110.087 77.8945C110.087 77.8945 110.046 77.9844 109.965 78.1641C109.802 78.793 109.538 79.3096 109.171 79.7139C109.13 79.7139 109.11 79.7363 109.11 79.7812C108.947 79.916 108.805 80.0283 108.683 80.1182C108.642 80.1631 108.622 80.1855 108.622 80.1855C108.459 80.3203 108.296 80.4102 108.133 80.4551C108.296 80.3652 108.255 80.3877 108.011 80.5225C107.807 80.5674 107.645 80.6123 107.522 80.6572C107.522 80.6572 107.421 80.6572 107.217 80.6572C107.014 80.7021 106.912 80.7246 106.912 80.7246H52.81C52.6065 80.7246 52.403 80.7021 52.1994 80.6572C52.1587 80.6572 52.0569 80.6348 51.8941 80.5898L51.5888 80.4551C51.5074 80.4102 51.3649 80.3428 51.1613 80.2529C50.9985 80.1182 50.9374 80.0732 50.9782 80.1182C50.9782 80.1182 50.8967 80.0508 50.7339 79.916L50.4897 79.7139C50.5711 79.7588 50.5304 79.6914 50.3675 79.5117C50.2454 79.332 50.164 79.2197 50.1233 79.1748C50.0826 79.1299 50.0215 78.9951 49.9401 78.7705C49.8587 78.5908 49.818 78.5234 49.818 78.5684C49.818 78.5684 49.7976 78.4785 49.7569 78.2988C49.6755 78.0742 49.6348 77.9395 49.6348 77.8945C49.6348 77.9395 49.6348 77.8721 49.6348 77.6924C49.5941 77.4678 49.5737 77.3105 49.5737 77.2207V77.1533C49.5737 77.2432 49.5737 77.1758 49.5737 76.9512C49.6144 76.7266 49.6348 76.5693 49.6348 76.4795C49.6348 76.4346 49.6755 76.2998 49.7569 76.0752C49.7976 75.8506 49.818 75.7607 49.818 75.8057L62.5191 40.9014C63.0483 39.4189 64.0456 38.6777 65.5111 38.6777C66.9359 38.6777 67.9333 39.4189 68.5032 40.9014L80.3494 73.582H102.149L77.968 7.14258H52.9932L8.05091 130.857H29.7893L38.8266 106.128C39.478 104.331 40.6585 103.612 42.3683 103.972H117.964C119.267 103.927 120.203 104.556 120.773 105.858L120.895 106.128C120.895 106.128 120.916 106.15 120.956 106.195L130.726 133.148Z" fill="#EF4444"/>
<path d="M151.971 130.857L144.766 111.047H122.966L130.172 130.857H151.971ZM86.573 73.582H102.449L94.5111 51.75L86.573 73.582ZM159.726 133.148C160.174 134.316 160.072 135.417 159.421 136.45C158.77 137.483 157.874 138 156.734 138H128.035C126.569 138 125.572 137.259 125.043 135.776L116.066 111.047H72.9559L63.9797 135.776C63.4505 137.259 62.4531 138 60.9876 138H32.2269C31.0871 138 30.2119 137.483 29.6012 136.45C28.9499 135.417 28.8278 134.316 29.2349 133.148L76.8639 2.22363C77.3932 0.741211 78.3905 0 79.856 0H109.166C110.632 0 111.629 0.741211 112.158 2.22363L138.904 75.8057C138.904 75.7607 138.924 75.8506 138.965 76.0752C139.046 76.2998 139.087 76.4346 139.087 76.4795C139.087 76.5693 139.107 76.7266 139.148 76.9512C139.148 77.1758 139.148 77.2432 139.148 77.1533V77.2207C139.148 77.3105 139.128 77.4678 139.087 77.6924C139.046 77.917 139.046 77.9844 139.087 77.8945C139.087 77.8945 139.046 77.9844 138.965 78.1641C138.802 78.793 138.538 79.3096 138.171 79.7139C138.13 79.7139 138.11 79.7363 138.11 79.7812C137.947 79.916 137.805 80.0283 137.683 80.1182C137.642 80.1631 137.622 80.1855 137.622 80.1855C137.459 80.3203 137.296 80.4102 137.133 80.4551C137.296 80.3652 137.255 80.3877 137.011 80.5225C136.807 80.5674 136.645 80.6123 136.522 80.6572C136.522 80.6572 136.421 80.6572 136.217 80.6572C136.014 80.7021 135.912 80.7246 135.912 80.7246H81.81C81.6065 80.7246 81.403 80.7021 81.1994 80.6572C81.1587 80.6572 81.0569 80.6348 80.8941 80.5898L80.5888 80.4551C80.5074 80.4102 80.3649 80.3428 80.1613 80.2529C79.9985 80.1182 79.9374 80.0732 79.9782 80.1182C79.9782 80.1182 79.8967 80.0508 79.7339 79.916L79.4897 79.7139C79.5711 79.7588 79.5304 79.6914 79.3675 79.5117C79.2454 79.332 79.164 79.2197 79.1233 79.1748C79.0826 79.1299 79.0215 78.9951 78.9401 78.7705C78.8587 78.5908 78.818 78.5234 78.818 78.5684C78.818 78.5684 78.7976 78.4785 78.7569 78.2988C78.6755 78.0742 78.6348 77.9395 78.6348 77.8945C78.6348 77.9395 78.6348 77.8721 78.6348 77.6924C78.5941 77.4678 78.5737 77.3105 78.5737 77.2207V77.1533C78.5737 77.2432 78.5737 77.1758 78.5737 76.9512C78.6144 76.7266 78.6348 76.5693 78.6348 76.4795C78.6348 76.4346 78.6755 76.2998 78.7569 76.0752C78.7976 75.8506 78.818 75.7607 78.818 75.8057L91.5191 40.9014C92.0483 39.4189 93.0456 38.6777 94.5111 38.6777C95.9359 38.6777 96.9333 39.4189 97.5032 40.9014L109.349 73.582H131.149L106.968 7.14258H81.9932L37.0509 130.857H58.7893L67.8266 106.128C68.478 104.331 69.6585 103.612 71.3683 103.972H146.964C148.267 103.927 149.203 104.556 149.773 105.858L149.895 106.128C149.895 106.128 149.916 106.15 149.956 106.195L159.726 133.148Z" fill="#EF4444"/>
</svg>
