<svg width="199" height="199" viewBox="0 0 199 199" fill="none" xmlns="http://www.w3.org/2000/svg">
<rect x="6.5" y="6.5" width="186" height="186" rx="23.5" stroke="#EF4444" stroke-width="13"/>
<path d="M141.971 160.857L134.766 141.047H112.966L120.172 160.857H141.971ZM76.573 103.582H92.4493L84.5111 81.75L76.573 103.582ZM149.726 163.148C150.174 164.316 150.072 165.417 149.421 166.45C148.77 167.483 147.874 168 146.734 168H118.035C116.569 168 115.572 167.259 115.043 165.776L106.066 141.047H62.9559L53.9797 165.776C53.4505 167.259 52.4531 168 50.9876 168H22.2269C21.0871 168 20.2119 167.483 19.6012 166.45C18.9499 165.417 18.8278 164.316 19.2349 163.148L66.8639 32.2236C67.3932 30.7412 68.3905 30 69.856 30H99.1662C100.632 30 101.629 30.7412 102.158 32.2236L128.904 105.806C128.904 105.761 128.924 105.851 128.965 106.075C129.046 106.3 129.087 106.435 129.087 106.479C129.087 106.569 129.107 106.727 129.148 106.951C129.148 107.176 129.148 107.243 129.148 107.153V107.221C129.148 107.311 129.128 107.468 129.087 107.692C129.046 107.917 129.046 107.984 129.087 107.895C129.087 107.895 129.046 107.984 128.965 108.164C128.802 108.793 128.538 109.31 128.171 109.714C128.13 109.714 128.11 109.736 128.11 109.781C127.947 109.916 127.805 110.028 127.683 110.118C127.642 110.163 127.622 110.186 127.622 110.186C127.459 110.32 127.296 110.41 127.133 110.455C127.296 110.365 127.255 110.388 127.011 110.522C126.807 110.567 126.645 110.612 126.522 110.657C126.522 110.657 126.421 110.657 126.217 110.657C126.014 110.702 125.912 110.725 125.912 110.725H71.81C71.6065 110.725 71.403 110.702 71.1994 110.657C71.1587 110.657 71.0569 110.635 70.8941 110.59L70.5888 110.455C70.5074 110.41 70.3649 110.343 70.1613 110.253C69.9985 110.118 69.9374 110.073 69.9782 110.118C69.9782 110.118 69.8967 110.051 69.7339 109.916L69.4897 109.714C69.5711 109.759 69.5304 109.691 69.3675 109.512C69.2454 109.332 69.164 109.22 69.1233 109.175C69.0826 109.13 69.0215 108.995 68.9401 108.771C68.8587 108.591 68.818 108.523 68.818 108.568C68.818 108.568 68.7976 108.479 68.7569 108.299C68.6755 108.074 68.6348 107.939 68.6348 107.895C68.6348 107.939 68.6348 107.872 68.6348 107.692C68.5941 107.468 68.5737 107.311 68.5737 107.221V107.153C68.5737 107.243 68.5737 107.176 68.5737 106.951C68.6144 106.727 68.6348 106.569 68.6348 106.479C68.6348 106.435 68.6755 106.3 68.7569 106.075C68.7976 105.851 68.818 105.761 68.818 105.806L81.5191 70.9014C82.0483 69.4189 83.0456 68.6777 84.5111 68.6777C85.9359 68.6777 86.9333 69.4189 87.5032 70.9014L99.3494 103.582H121.149L96.968 37.1426H71.9932L27.0509 160.857H48.7893L57.8266 136.128C58.478 134.331 59.6585 133.612 61.3683 133.972H136.964C138.267 133.927 139.203 134.556 139.773 135.858L139.895 136.128C139.895 136.128 139.916 136.15 139.956 136.195L149.726 163.148Z" fill="#EF4444"/>
<path d="M170.971 160.857L163.766 141.047H141.966L149.172 160.857H170.971ZM105.573 103.582H121.449L113.511 81.75L105.573 103.582ZM178.726 163.148C179.174 164.316 179.072 165.417 178.421 166.45C177.77 167.483 176.874 168 175.734 168H147.035C145.569 168 144.572 167.259 144.043 165.776L135.066 141.047H91.9559L82.9797 165.776C82.4505 167.259 81.4531 168 79.9876 168H51.2269C50.0871 168 49.2119 167.483 48.6012 166.45C47.9499 165.417 47.8278 164.316 48.2349 163.148L95.8639 32.2236C96.3932 30.7412 97.3905 30 98.856 30H128.166C129.632 30 130.629 30.7412 131.158 32.2236L157.904 105.806C157.904 105.761 157.924 105.851 157.965 106.075C158.046 106.3 158.087 106.435 158.087 106.479C158.087 106.569 158.107 106.727 158.148 106.951C158.148 107.176 158.148 107.243 158.148 107.153V107.221C158.148 107.311 158.128 107.468 158.087 107.692C158.046 107.917 158.046 107.984 158.087 107.895C158.087 107.895 158.046 107.984 157.965 108.164C157.802 108.793 157.538 109.31 157.171 109.714C157.13 109.714 157.11 109.736 157.11 109.781C156.947 109.916 156.805 110.028 156.683 110.118C156.642 110.163 156.622 110.186 156.622 110.186C156.459 110.32 156.296 110.41 156.133 110.455C156.296 110.365 156.255 110.388 156.011 110.522C155.807 110.567 155.645 110.612 155.522 110.657C155.522 110.657 155.421 110.657 155.217 110.657C155.014 110.702 154.912 110.725 154.912 110.725H100.81C100.607 110.725 100.403 110.702 100.199 110.657C100.159 110.657 100.057 110.635 99.8941 110.59L99.5888 110.455C99.5074 110.41 99.3649 110.343 99.1613 110.253C98.9985 110.118 98.9374 110.073 98.9782 110.118C98.9782 110.118 98.8967 110.051 98.7339 109.916L98.4897 109.714C98.5711 109.759 98.5304 109.691 98.3675 109.512C98.2454 109.332 98.164 109.22 98.1233 109.175C98.0826 109.13 98.0215 108.995 97.9401 108.771C97.8587 108.591 97.818 108.523 97.818 108.568C97.818 108.568 97.7976 108.479 97.7569 108.299C97.6755 108.074 97.6348 107.939 97.6348 107.895C97.6348 107.939 97.6348 107.872 97.6348 107.692C97.5941 107.468 97.5737 107.311 97.5737 107.221V107.153C97.5737 107.243 97.5737 107.176 97.5737 106.951C97.6144 106.727 97.6348 106.569 97.6348 106.479C97.6348 106.435 97.6755 106.3 97.7569 106.075C97.7976 105.851 97.818 105.761 97.818 105.806L110.519 70.9014C111.048 69.4189 112.046 68.6777 113.511 68.6777C114.936 68.6777 115.933 69.4189 116.503 70.9014L128.349 103.582H150.149L125.968 37.1426H100.993L56.0509 160.857H77.7893L86.8266 136.128C87.478 134.331 88.6585 133.612 90.3683 133.972H165.964C167.267 133.927 168.203 134.556 168.773 135.858L168.895 136.128C168.895 136.128 168.916 136.15 168.956 136.195L178.726 163.148Z" fill="#EF4444"/>
</svg>
