<svg width="199" height="199" viewBox="0 0 199 199" fill="none" xmlns="http://www.w3.org/2000/svg">
<rect x="4" y="4" width="191" height="191" rx="26" stroke="#EF4444" stroke-width="8"/>
<path d="M157.625 156.375L150.25 138H127.938L135.312 156.375H157.625ZM90.6875 103.25H106.938L98.8125 83L90.6875 103.25ZM165.562 158.5C166.021 159.583 165.917 160.604 165.25 161.562C164.583 162.521 163.667 163 162.5 163H133.125C131.625 163 130.604 162.312 130.062 160.938L120.875 138H76.75L67.5625 160.938C67.0208 162.312 66 163 64.5 163H35.0625C33.8958 163 33 162.521 32.375 161.562C31.7083 160.604 31.5833 159.583 32 158.5L80.75 37.0625C81.2917 35.6875 82.3125 35 83.8125 35H113.812C115.312 35 116.333 35.6875 116.875 37.0625L144.25 105.312C144.25 105.271 144.271 105.354 144.312 105.562C144.396 105.771 144.438 105.896 144.438 105.938C144.438 106.021 144.458 106.167 144.5 106.375C144.5 106.583 144.5 106.646 144.5 106.562V106.625C144.5 106.708 144.479 106.854 144.438 107.062C144.396 107.271 144.396 107.333 144.438 107.25C144.438 107.25 144.396 107.333 144.312 107.5C144.146 108.083 143.875 108.562 143.5 108.938C143.458 108.938 143.438 108.958 143.438 109C143.271 109.125 143.125 109.229 143 109.312C142.958 109.354 142.938 109.375 142.938 109.375C142.771 109.5 142.604 109.583 142.438 109.625C142.604 109.542 142.562 109.562 142.312 109.688C142.104 109.729 141.938 109.771 141.812 109.812C141.812 109.812 141.708 109.812 141.5 109.812C141.292 109.854 141.188 109.875 141.188 109.875H85.8125C85.6042 109.875 85.3958 109.854 85.1875 109.812C85.1458 109.812 85.0417 109.792 84.875 109.75L84.5625 109.625C84.4792 109.583 84.3333 109.521 84.125 109.438C83.9583 109.312 83.8958 109.271 83.9375 109.312C83.9375 109.312 83.8542 109.25 83.6875 109.125L83.4375 108.938C83.5208 108.979 83.4792 108.917 83.3125 108.75C83.1875 108.583 83.1042 108.479 83.0625 108.438C83.0208 108.396 82.9583 108.271 82.875 108.062C82.7917 107.896 82.75 107.833 82.75 107.875C82.75 107.875 82.7292 107.792 82.6875 107.625C82.6042 107.417 82.5625 107.292 82.5625 107.25C82.5625 107.292 82.5625 107.229 82.5625 107.062C82.5208 106.854 82.5 106.708 82.5 106.625V106.562C82.5 106.646 82.5 106.583 82.5 106.375C82.5417 106.167 82.5625 106.021 82.5625 105.938C82.5625 105.896 82.6042 105.771 82.6875 105.562C82.7292 105.354 82.75 105.271 82.75 105.312L95.75 72.9375C96.2917 71.5625 97.3125 70.875 98.8125 70.875C100.271 70.875 101.292 71.5625 101.875 72.9375L114 103.25H136.312L111.562 41.625H86L40 156.375H62.25L71.5 133.438C72.1667 131.771 73.375 131.104 75.125 131.438H152.5C153.833 131.396 154.792 131.979 155.375 133.188L155.5 133.438C155.5 133.438 155.521 133.458 155.562 133.5L165.562 158.5Z" fill="#EF4444"/>
</svg>
