<svg width="891" height="199" viewBox="0 0 891 199" fill="none" xmlns="http://www.w3.org/2000/svg">
<path d="M273.616 126.976H238.032L232.144 144H213.328L245.456 54.528H266.32L298.448 144H279.504L273.616 126.976ZM268.752 112.64L255.824 75.264L242.896 112.64H268.752ZM349.753 72.064C358.201 72.064 365.028 74.752 370.233 80.128C375.438 85.4187 378.041 92.8427 378.041 102.4V144H360.121V104.832C360.121 99.2 358.713 94.8907 355.897 91.904C353.081 88.832 349.241 87.296 344.377 87.296C339.428 87.296 335.502 88.832 332.601 91.904C329.785 94.8907 328.377 99.2 328.377 104.832V144H310.457V73.088H328.377V81.92C330.766 78.848 333.796 76.4587 337.465 74.752C341.22 72.96 345.316 72.064 349.753 72.064ZM390.474 108.288C390.474 101.12 391.882 94.7627 394.698 89.216C397.599 83.6693 401.525 79.4027 406.474 76.416C411.423 73.4293 416.927 71.936 422.986 71.936C427.594 71.936 431.989 72.96 436.17 75.008C440.351 76.9707 443.679 79.616 446.154 82.944V49.28H464.33V144H446.154V133.504C443.935 137.003 440.821 139.819 436.81 141.952C432.799 144.085 428.149 145.152 422.858 145.152C416.885 145.152 411.423 143.616 406.474 140.544C401.525 137.472 397.599 133.163 394.698 127.616C391.882 121.984 390.474 115.541 390.474 108.288ZM446.282 108.544C446.282 104.192 445.429 100.48 443.722 97.408C442.015 94.2507 439.711 91.8613 436.81 90.24C433.909 88.5333 430.794 87.68 427.466 87.68C424.138 87.68 421.066 88.4907 418.25 90.112C415.434 91.7333 413.13 94.1227 411.338 97.28C409.631 100.352 408.778 104.021 408.778 108.288C408.778 112.555 409.631 116.309 411.338 119.552C413.13 122.709 415.434 125.141 418.25 126.848C421.151 128.555 424.223 129.408 427.466 129.408C430.794 129.408 433.909 128.597 436.81 126.976C439.711 125.269 442.015 122.88 443.722 119.808C445.429 116.651 446.282 112.896 446.282 108.544ZM490.92 64.64C487.763 64.64 485.117 63.6587 482.984 61.696C480.936 59.648 479.912 57.1307 479.912 54.144C479.912 51.1573 480.936 48.6827 482.984 46.72C485.117 44.672 487.763 43.648 490.92 43.648C494.077 43.648 496.68 44.672 498.728 46.72C500.861 48.6827 501.928 51.1573 501.928 54.144C501.928 57.1307 500.861 59.648 498.728 61.696C496.68 63.6587 494.077 64.64 490.92 64.64ZM499.752 73.088V144H481.832V73.088H499.752ZM535.377 84.096C537.681 80.3413 540.668 77.3973 544.337 75.264C548.092 73.1307 552.358 72.064 557.137 72.064V90.88H552.401C546.769 90.88 542.502 92.2027 539.601 94.848C536.785 97.4933 535.377 102.101 535.377 108.672V144H517.457V73.088H535.377V84.096ZM564.599 108.288C564.599 101.12 566.007 94.7627 568.823 89.216C571.724 83.6693 575.607 79.4027 580.471 76.416C585.42 73.4293 590.924 71.936 596.983 71.936C602.274 71.936 606.882 73.0027 610.807 75.136C614.818 77.2693 618.018 79.9573 620.407 83.2V73.088H638.455V144H620.407V133.632C618.103 136.96 614.903 139.733 610.807 141.952C606.796 144.085 602.146 145.152 596.855 145.152C590.882 145.152 585.42 143.616 580.471 140.544C575.607 137.472 571.724 133.163 568.823 127.616C566.007 121.984 564.599 115.541 564.599 108.288ZM620.407 108.544C620.407 104.192 619.554 100.48 617.847 97.408C616.14 94.2507 613.836 91.8613 610.935 90.24C608.034 88.5333 604.919 87.68 601.591 87.68C598.263 87.68 595.191 88.4907 592.375 90.112C589.559 91.7333 587.255 94.1227 585.463 97.28C583.756 100.352 582.903 104.021 582.903 108.288C582.903 112.555 583.756 116.309 585.463 119.552C587.255 122.709 589.559 125.141 592.375 126.848C595.276 128.555 598.348 129.408 601.591 129.408C604.919 129.408 608.034 128.597 610.935 126.976C613.836 125.269 616.14 122.88 617.847 119.808C619.554 116.651 620.407 112.896 620.407 108.544ZM651.349 108.544C651.349 101.205 652.842 94.8053 655.829 89.344C658.816 83.7973 662.954 79.5307 668.245 76.544C673.536 73.472 679.594 71.936 686.421 71.936C695.21 71.936 702.464 74.1547 708.181 78.592C713.984 82.944 717.866 89.088 719.829 97.024H700.501C699.477 93.952 697.728 91.5627 695.253 89.856C692.864 88.064 689.877 87.168 686.293 87.168C681.173 87.168 677.12 89.0453 674.133 92.8C671.146 96.4693 669.653 101.717 669.653 108.544C669.653 115.285 671.146 120.533 674.133 124.288C677.12 127.957 681.173 129.792 686.293 129.792C693.546 129.792 698.282 126.549 700.501 120.064H719.829C717.866 127.744 713.984 133.845 708.181 138.368C702.378 142.891 695.125 145.152 686.421 145.152C679.594 145.152 673.536 143.659 668.245 140.672C662.954 137.6 658.816 133.333 655.829 127.872C652.842 122.325 651.349 115.883 651.349 108.544ZM764.445 145.152C757.618 145.152 751.474 143.659 746.013 140.672C740.552 137.6 736.242 133.291 733.085 127.744C730.013 122.197 728.477 115.797 728.477 108.544C728.477 101.291 730.056 94.8907 733.213 89.344C736.456 83.7973 740.85 79.5307 746.397 76.544C751.944 73.472 758.13 71.936 764.957 71.936C771.784 71.936 777.97 73.472 783.517 76.544C789.064 79.5307 793.416 83.7973 796.573 89.344C799.816 94.8907 801.437 101.291 801.437 108.544C801.437 115.797 799.773 122.197 796.445 127.744C793.202 133.291 788.765 137.6 783.133 140.672C777.586 143.659 771.357 145.152 764.445 145.152ZM764.445 129.536C767.688 129.536 770.717 128.768 773.533 127.232C776.434 125.611 778.738 123.221 780.445 120.064C782.152 116.907 783.005 113.067 783.005 108.544C783.005 101.803 781.213 96.64 777.629 93.056C774.13 89.3867 769.821 87.552 764.701 87.552C759.581 87.552 755.272 89.3867 751.773 93.056C748.36 96.64 746.653 101.803 746.653 108.544C746.653 115.285 748.317 120.491 751.645 124.16C755.058 127.744 759.325 129.536 764.445 129.536ZM853.878 72.064C862.326 72.064 869.153 74.752 874.358 80.128C879.563 85.4187 882.166 92.8427 882.166 102.4V144H864.246V104.832C864.246 99.2 862.838 94.8907 860.022 91.904C857.206 88.832 853.366 87.296 848.502 87.296C843.553 87.296 839.627 88.832 836.726 91.904C833.91 94.8907 832.502 99.2 832.502 104.832V144H814.582V73.088H832.502V81.92C834.891 78.848 837.921 76.4587 841.59 74.752C845.345 72.96 849.441 72.064 853.878 72.064Z" fill="#EF4444"/>
<rect x="6.5" y="6.5" width="186" height="186" rx="23.5" stroke="#EF4444" stroke-width="13"/>
<path d="M141.971 160.857L134.766 141.047H112.966L120.172 160.857H141.971ZM76.573 103.582H92.4493L84.5111 81.75L76.573 103.582ZM149.726 163.148C150.174 164.316 150.072 165.417 149.421 166.45C148.77 167.483 147.874 168 146.734 168H118.035C116.569 168 115.572 167.259 115.043 165.776L106.066 141.047H62.9559L53.9797 165.776C53.4505 167.259 52.4531 168 50.9876 168H22.2269C21.0871 168 20.2119 167.483 19.6012 166.45C18.9499 165.417 18.8278 164.316 19.2349 163.148L66.8639 32.2236C67.3932 30.7412 68.3905 30 69.856 30H99.1662C100.632 30 101.629 30.7412 102.158 32.2236L128.904 105.806C128.904 105.761 128.924 105.851 128.965 106.075C129.046 106.3 129.087 106.435 129.087 106.479C129.087 106.569 129.107 106.727 129.148 106.951C129.148 107.176 129.148 107.243 129.148 107.153V107.221C129.148 107.311 129.128 107.468 129.087 107.692C129.046 107.917 129.046 107.984 129.087 107.895C129.087 107.895 129.046 107.984 128.965 108.164C128.802 108.793 128.538 109.31 128.171 109.714C128.13 109.714 128.11 109.736 128.11 109.781C127.947 109.916 127.805 110.028 127.683 110.118C127.642 110.163 127.622 110.186 127.622 110.186C127.459 110.32 127.296 110.41 127.133 110.455C127.296 110.365 127.255 110.388 127.011 110.522C126.807 110.567 126.645 110.612 126.522 110.657C126.522 110.657 126.421 110.657 126.217 110.657C126.014 110.702 125.912 110.725 125.912 110.725H71.81C71.6065 110.725 71.403 110.702 71.1994 110.657C71.1587 110.657 71.0569 110.635 70.8941 110.59L70.5888 110.455C70.5074 110.41 70.3649 110.343 70.1613 110.253C69.9985 110.118 69.9374 110.073 69.9782 110.118C69.9782 110.118 69.8967 110.051 69.7339 109.916L69.4897 109.714C69.5711 109.759 69.5304 109.691 69.3675 109.512C69.2454 109.332 69.164 109.22 69.1233 109.175C69.0826 109.13 69.0215 108.995 68.9401 108.771C68.8587 108.591 68.818 108.523 68.818 108.568C68.818 108.568 68.7976 108.479 68.7569 108.299C68.6755 108.074 68.6348 107.939 68.6348 107.895C68.6348 107.939 68.6348 107.872 68.6348 107.692C68.5941 107.468 68.5737 107.311 68.5737 107.221V107.153C68.5737 107.243 68.5737 107.176 68.5737 106.951C68.6144 106.727 68.6348 106.569 68.6348 106.479C68.6348 106.435 68.6755 106.3 68.7569 106.075C68.7976 105.851 68.818 105.761 68.818 105.806L81.5191 70.9014C82.0483 69.4189 83.0456 68.6777 84.5111 68.6777C85.9359 68.6777 86.9333 69.4189 87.5032 70.9014L99.3494 103.582H121.149L96.968 37.1426H71.9932L27.0509 160.857H48.7893L57.8266 136.128C58.478 134.331 59.6585 133.612 61.3683 133.972H136.964C138.267 133.927 139.203 134.556 139.773 135.858L139.895 136.128C139.895 136.128 139.916 136.15 139.956 136.195L149.726 163.148Z" fill="#EF4444"/>
<path d="M170.971 160.857L163.766 141.047H141.966L149.172 160.857H170.971ZM105.573 103.582H121.449L113.511 81.75L105.573 103.582ZM178.726 163.148C179.174 164.316 179.072 165.417 178.421 166.45C177.77 167.483 176.874 168 175.734 168H147.035C145.569 168 144.572 167.259 144.043 165.776L135.066 141.047H91.9559L82.9797 165.776C82.4505 167.259 81.4531 168 79.9876 168H51.2269C50.0871 168 49.2119 167.483 48.6012 166.45C47.9499 165.417 47.8278 164.316 48.2349 163.148L95.8639 32.2236C96.3932 30.7412 97.3905 30 98.856 30H128.166C129.632 30 130.629 30.7412 131.158 32.2236L157.904 105.806C157.904 105.761 157.924 105.851 157.965 106.075C158.046 106.3 158.087 106.435 158.087 106.479C158.087 106.569 158.107 106.727 158.148 106.951C158.148 107.176 158.148 107.243 158.148 107.153V107.221C158.148 107.311 158.128 107.468 158.087 107.692C158.046 107.917 158.046 107.984 158.087 107.895C158.087 107.895 158.046 107.984 157.965 108.164C157.802 108.793 157.538 109.31 157.171 109.714C157.13 109.714 157.11 109.736 157.11 109.781C156.947 109.916 156.805 110.028 156.683 110.118C156.642 110.163 156.622 110.186 156.622 110.186C156.459 110.32 156.296 110.41 156.133 110.455C156.296 110.365 156.255 110.388 156.011 110.522C155.807 110.567 155.645 110.612 155.522 110.657C155.522 110.657 155.421 110.657 155.217 110.657C155.014 110.702 154.912 110.725 154.912 110.725H100.81C100.607 110.725 100.403 110.702 100.199 110.657C100.159 110.657 100.057 110.635 99.8941 110.59L99.5888 110.455C99.5074 110.41 99.3649 110.343 99.1613 110.253C98.9985 110.118 98.9374 110.073 98.9782 110.118C98.9782 110.118 98.8967 110.051 98.7339 109.916L98.4897 109.714C98.5711 109.759 98.5304 109.691 98.3675 109.512C98.2454 109.332 98.164 109.22 98.1233 109.175C98.0826 109.13 98.0215 108.995 97.9401 108.771C97.8587 108.591 97.818 108.523 97.818 108.568C97.818 108.568 97.7976 108.479 97.7569 108.299C97.6755 108.074 97.6348 107.939 97.6348 107.895C97.6348 107.939 97.6348 107.872 97.6348 107.692C97.5941 107.468 97.5737 107.311 97.5737 107.221V107.153C97.5737 107.243 97.5737 107.176 97.5737 106.951C97.6144 106.727 97.6348 106.569 97.6348 106.479C97.6348 106.435 97.6755 106.3 97.7569 106.075C97.7976 105.851 97.818 105.761 97.818 105.806L110.519 70.9014C111.048 69.4189 112.046 68.6777 113.511 68.6777C114.936 68.6777 115.933 69.4189 116.503 70.9014L128.349 103.582H150.149L125.968 37.1426H100.993L56.0509 160.857H77.7893L86.8266 136.128C87.478 134.331 88.6585 133.612 90.3683 133.972H165.964C167.267 133.927 168.203 134.556 168.773 135.858L168.895 136.128C168.895 136.128 168.916 136.15 168.956 136.195L178.726 163.148Z" fill="#EF4444"/>
</svg>
